<?xml version="1.0" encoding="utf-8"?>
<!-- Generator: Adobe Illustrator 16.0.0, SVG Export Plug-In . SVG Version: 6.00 Build 0)  -->
<!DOCTYPE svg PUBLIC "-//W3C//DTD SVG 1.1//EN" "http://www.w3.org/Graphics/SVG/1.1/DTD/svg11.dtd">
<svg version="1.1" id="Layer_1" xmlns="http://www.w3.org/2000/svg" xmlns:xlink="http://www.w3.org/1999/xlink" x="0px" y="0px"
	 width="50px" height="50px" viewBox="0 0 50 50" enable-background="new 0 0 50 50" xml:space="preserve">
<g>
	<path fill="#22BFD5" d="M31.263,42.5H18.737V27.107c0-1.517,1.234-2.752,2.751-2.752h7.023c1.517,0,2.751,1.235,2.751,2.752V42.5z
		 M21.435,39.808h7.135v-12.7l-7.082-0.06L21.435,39.808z"/>
	<path fill="#22BFD5" d="M35.535,42.5h-21.07c-1.517,0-2.75-1.234-2.75-2.751V24.238H8.846c-0.744,0-1.346-0.602-1.346-1.346v-2.049
		c0-0.931,0.465-1.792,1.245-2.303L24.231,7.766c0.463-0.321,1.075-0.321,1.539,0l5.61,3.904v-1.42c0-1.517,1.232-2.75,2.75-2.75
		h1.407c1.514,0,2.747,1.231,2.749,2.746l0.009,6.235l2.992,2.083c0.748,0.488,1.213,1.349,1.213,2.28v2.049
		c0,0.744-0.602,1.346-1.347,1.346h-2.868v15.511C38.285,41.266,37.052,42.5,35.535,42.5z M10.229,21.547h2.832
		c0.744,0,1.346,0.602,1.346,1.346v16.856l21.128,0.059c0.032,0,0.058-0.025,0.058-0.059V22.893c0-0.744,0.603-1.346,1.347-1.346
		h2.868v-0.703l-3.627-2.555c-0.361-0.251-0.577-0.663-0.577-1.103l-0.009-6.936l-1.465-0.058l-0.058,4.054
		c0,0.5-0.278,0.961-0.723,1.193c-0.443,0.23-0.981,0.197-1.393-0.088L25,10.51L10.251,20.773L10.229,21.547z"/>
</g>
</svg>
