<?xml version="1.0" encoding="utf-8"?>
<!-- Generator: Adobe Illustrator 16.0.0, SVG Export Plug-In . SVG Version: 6.00 Build 0)  -->
<!DOCTYPE svg PUBLIC "-//W3C//DTD SVG 1.1//EN" "http://www.w3.org/Graphics/SVG/1.1/DTD/svg11.dtd">
<svg version="1.1" id="Layer_1" xmlns="http://www.w3.org/2000/svg" xmlns:xlink="http://www.w3.org/1999/xlink" x="0px" y="0px"
	 width="50px" height="50px" viewBox="0 0 50 50" enable-background="new 0 0 50 50" xml:space="preserve">
<g id="book">
	<path fill="#22BFD5" d="M36.281,42H13.084c-1.474,0-2.673-1.198-2.673-2.672V10.671C10.411,9.198,11.61,8,13.084,8h23.197
		c2.226,0,4.037,1.811,4.037,4.037v25.927C40.318,40.189,38.507,42,36.281,42z M13.084,10.615l-0.058,28.713l23.255,0.057
		c0.784,0,1.421-0.638,1.421-1.421V12.037c0-0.784-0.637-1.421-1.421-1.421H13.084z"/>
	<rect x="15.869" y="9.308" fill="#22BFD5" width="2.615" height="31.385"/>
	<path fill="#22BFD5" d="M14.448,16.074H8.99c-0.723,0-1.308-0.585-1.308-1.308c0-0.723,0.585-1.308,1.308-1.308h5.458
		c0.723,0,1.308,0.585,1.308,1.308C15.755,15.489,15.17,16.074,14.448,16.074z"/>
	<path fill="#22BFD5" d="M14.448,22.897H8.99c-0.723,0-1.308-0.585-1.308-1.308c0-0.723,0.585-1.308,1.308-1.308h5.458
		c0.723,0,1.308,0.585,1.308,1.308C15.755,22.312,15.17,22.897,14.448,22.897z"/>
	<path fill="#22BFD5" d="M14.448,29.719H8.99c-0.723,0-1.308-0.585-1.308-1.308s0.585-1.308,1.308-1.308h5.458
		c0.723,0,1.308,0.585,1.308,1.308S15.17,29.719,14.448,29.719z"/>
	<path fill="#22BFD5" d="M14.448,36.542H8.99c-0.723,0-1.308-0.585-1.308-1.308s0.585-1.308,1.308-1.308h5.458
		c0.723,0,1.308,0.585,1.308,1.308S15.17,36.542,14.448,36.542z"/>
</g>
</svg>
