<?xml version="1.0" encoding="utf-8"?>
<!-- Generator: Adobe Illustrator 16.0.0, SVG Export Plug-In . SVG Version: 6.00 Build 0)  -->
<!DOCTYPE svg PUBLIC "-//W3C//DTD SVG 1.1//EN" "http://www.w3.org/Graphics/SVG/1.1/DTD/svg11.dtd">
<svg version="1.1" id="Layer_1" xmlns="http://www.w3.org/2000/svg" xmlns:xlink="http://www.w3.org/1999/xlink" x="0px" y="0px"
	 width="50px" height="50px" viewBox="0 0 50 50" enable-background="new 0 0 50 50" xml:space="preserve">
<g>
	<path fill="#22BFD5" d="M24.747,32.029c-0.349,0-0.696-0.146-0.943-0.429l-2.503-2.872c-0.454-0.521-0.398-1.311,0.121-1.765
		c0.518-0.453,1.311-0.401,1.764,0.121l2.503,2.872c0.453,0.521,0.398,1.311-0.121,1.765C25.332,31.927,25.039,32.029,24.747,32.029
		z"/>
	<path fill="#22BFD5" d="M28.5,36.337c-0.348,0-0.695-0.145-0.942-0.429l-2.085-2.394c-0.454-0.521-0.398-1.311,0.121-1.763
		c0.518-0.454,1.311-0.402,1.764,0.121l2.085,2.394c0.453,0.521,0.399,1.311-0.121,1.763C29.085,36.235,28.792,36.337,28.5,36.337z"
		/>
	<path fill="#22BFD5" d="M20.576,27.24c-0.348,0-0.694-0.146-0.942-0.429l-2.086-2.393c-0.452-0.521-0.398-1.309,0.121-1.764
		c0.518-0.452,1.308-0.399,1.764,0.121l2.086,2.393c0.452,0.521,0.398,1.309-0.121,1.764C21.161,27.139,20.868,27.24,20.576,27.24z"
		/>
	<path fill="#22BFD5" d="M22.277,41.759c-0.347,0-0.695-0.146-0.941-0.429l-3.337-3.83c-0.454-0.521-0.4-1.309,0.121-1.764
		c0.26-0.225,0.416-0.54,0.439-0.884c0.025-0.343-0.088-0.674-0.313-0.933c-0.452-0.52-1.3-0.579-1.821-0.129
		c-0.518,0.452-1.309,0.399-1.763-0.121l-3.336-3.829c-0.454-0.522-0.398-1.313,0.121-1.765L33.468,8.893
		c0.519-0.454,1.311-0.401,1.764,0.121l3.338,3.831c0.218,0.25,0.327,0.576,0.305,0.906c-0.023,0.331-0.178,0.64-0.427,0.857
		c-0.261,0.228-0.417,0.542-0.44,0.885c-0.024,0.343,0.088,0.676,0.313,0.936c0.246,0.28,0.6,0.442,0.975,0.442l0,0
		c0.22,0,0.544-0.055,0.845-0.317c0.25-0.218,0.571-0.317,0.907-0.307c0.33,0.024,0.64,0.178,0.857,0.427l3.335,3.832
		c0.455,0.521,0.399,1.31-0.121,1.763l-22.02,19.183C22.862,41.657,22.569,41.759,22.277,41.759z M20.566,36.642l1.832,2.103
		l20.136-17.541l-1.833-2.106c-0.444,0.179-0.921,0.272-1.406,0.272c0,0,0,0-0.001,0c-1.097,0-2.138-0.475-2.857-1.299
		c-0.665-0.766-0.993-1.742-0.924-2.751c0.04-0.58,0.208-1.128,0.488-1.618l-1.833-2.103L14.032,29.141l1.834,2.104
		c1.447-0.577,3.227-0.161,4.265,1.033c0.664,0.76,0.992,1.736,0.921,2.748C21.012,35.603,20.845,36.153,20.566,36.642z"/>
	<path fill="#22BFD5" d="M17.877,42.5c-0.262,0-0.523-0.083-0.75-0.251l-4.061-3.048c-0.266-0.199-0.442-0.495-0.488-0.824
		c-0.046-0.328,0.04-0.662,0.239-0.928c0.207-0.273,0.293-0.612,0.245-0.954c-0.049-0.344-0.228-0.646-0.503-0.853
		c-0.554-0.416-1.388-0.296-1.801,0.254c-0.2,0.266-0.496,0.44-0.824,0.488c-0.33,0.047-0.661-0.04-0.928-0.239l-4.056-3.055
		c-0.551-0.414-0.663-1.197-0.249-1.748L22.248,8c0.2-0.264,0.497-0.44,0.825-0.486c0.322-0.05,0.66,0.038,0.927,0.239l4.061,3.056
		c0.551,0.414,0.661,1.199,0.246,1.749c-0.206,0.276-0.293,0.615-0.246,0.956c0.046,0.326,0.212,0.617,0.468,0.822
		c0.326,0.194,0.549,0.527,0.6,0.907c0.057,0.417-0.101,0.833-0.416,1.109l-14.68,12.789l1.834,2.104
		c1.447-0.577,3.227-0.161,4.265,1.033c0.664,0.76,0.992,1.736,0.921,2.748c-0.04,0.577-0.207,1.128-0.485,1.616l0.593,0.68
		c0.388,0.446,0.411,1.101,0.056,1.574l-2.34,3.106C18.631,42.327,18.257,42.5,17.877,42.5z M15.399,37.826L17.63,39.5l0.979-1.3
		l-0.611-0.7c-0.217-0.249-0.328-0.575-0.305-0.906c0.022-0.33,0.175-0.638,0.426-0.857c0.26-0.225,0.416-0.54,0.439-0.884
		c0.025-0.343-0.088-0.674-0.313-0.933c-0.452-0.52-1.3-0.579-1.821-0.129c-0.518,0.452-1.309,0.399-1.763-0.121l-3.336-3.829
		c-0.454-0.522-0.398-1.313,0.121-1.765l14.656-12.766c-0.264-0.434-0.442-0.924-0.515-1.446c-0.083-0.574-0.032-1.146,0.139-1.684
		l-2.23-1.679L7.451,31.845l2.227,1.677c1.273-0.857,3.104-0.836,4.383,0.122c0.81,0.607,1.334,1.496,1.478,2.502
		C15.62,36.718,15.57,37.29,15.399,37.826z"/>
</g>
</svg>
