<?xml version="1.0" encoding="utf-8"?>
<!-- Generator: Adobe Illustrator 16.0.0, SVG Export Plug-In . SVG Version: 6.00 Build 0)  -->
<!DOCTYPE svg PUBLIC "-//W3C//DTD SVG 1.1//EN" "http://www.w3.org/Graphics/SVG/1.1/DTD/svg11.dtd">
<svg version="1.1" id="Layer_1" xmlns="http://www.w3.org/2000/svg" xmlns:xlink="http://www.w3.org/1999/xlink" x="0px" y="0px"
	 width="50px" height="50px" viewBox="0 0 50 50" enable-background="new 0 0 50 50" xml:space="preserve">
<g>
	<path fill="#22BFD5" d="M21.542,35.582c-7.742,0-14.043-6.298-14.043-14.04C7.499,13.799,13.8,7.5,21.542,7.5
		c7.741,0,14.041,6.299,14.041,14.042C35.583,29.284,29.283,35.582,21.542,35.582z M21.542,10.682c-5.987,0-10.86,4.872-10.86,10.86
		c0,5.986,4.873,10.859,10.86,10.859s10.861-4.873,10.861-10.859C32.403,15.554,27.529,10.682,21.542,10.682z"/>
	<path fill="#22BFD5" d="M40.908,42.5c-0.404,0-0.814-0.157-1.122-0.468L29.215,31.463c-0.621-0.62-0.621-1.628,0-2.247
		c0.62-0.622,1.627-0.622,2.25,0l10.568,10.569c0.624,0.619,0.624,1.628,0,2.247C41.723,42.343,41.315,42.5,40.908,42.5z"/>
</g>
</svg>
