<?xml version="1.0" encoding="iso-8859-1"?>
<!-- Generator: Adobe Illustrator 16.0.0, SVG Export Plug-In . SVG Version: 6.00 Build 0)  -->
<!DOCTYPE svg PUBLIC "-//W3C//DTD SVG 1.1//EN" "http://www.w3.org/Graphics/SVG/1.1/DTD/svg11.dtd">
<svg version="1.1" id="Layer_1" xmlns="http://www.w3.org/2000/svg" xmlns:xlink="http://www.w3.org/1999/xlink" x="0px" y="0px"
	 width="50px" height="50px" viewBox="0 0 50 50" style="enable-background:new 0 0 50 50;" xml:space="preserve">
<g>
	<path style="fill:#22BFD5;" d="M39.865,43.238H10.14c-3.548,0-6.435-2.842-6.435-6.34v-25.17c0-1.081,0.878-1.955,1.963-1.955
		h38.668c1.086,0,1.959,0.874,1.959,1.955v25.17C46.295,40.396,43.412,43.238,39.865,43.238z M7.628,13.691v23.207
		c0,1.316,1.151,2.422,2.512,2.422h29.726c1.36,0,2.512-1.105,2.512-2.422V13.691H7.628z"/>
	<path style="fill:#22BFD5;" d="M44.336,23.631H5.668c-1.085,0-1.963-0.877-1.963-1.963c0-1.081,0.878-1.955,1.963-1.955h38.668
		c1.086,0,1.959,0.874,1.959,1.955C46.295,22.754,45.422,23.631,44.336,23.631z"/>
	<path style="fill:#22BFD5;" d="M25.005,16.611c-1.086,0-1.964-0.882-1.964-1.963V8.721c0-1.085,0.878-1.959,1.964-1.959
		c1.08,0,1.958,0.874,1.958,1.959v5.927C26.963,15.729,26.085,16.611,25.005,16.611z"/>
	<path style="fill:#22BFD5;" d="M14.698,16.611c-1.086,0-1.96-0.882-1.96-1.963V8.721c0-1.085,0.874-1.959,1.96-1.959
		c1.081,0,1.959,0.874,1.959,1.959v5.927C16.657,15.729,15.779,16.611,14.698,16.611z"/>
	<path style="fill:#22BFD5;" d="M35.307,16.611c-1.082,0-1.959-0.882-1.959-1.963V8.721c0-1.085,0.877-1.959,1.959-1.959
		c1.085,0,1.964,0.874,1.964,1.959v5.927C37.271,15.729,36.392,16.611,35.307,16.611z"/>
</g>
</svg>
