<?xml version="1.0" encoding="iso-8859-1"?>
<!-- Generator: Adobe Illustrator 16.0.0, SVG Export Plug-In . SVG Version: 6.00 Build 0)  -->
<!DOCTYPE svg PUBLIC "-//W3C//DTD SVG 1.1//EN" "http://www.w3.org/Graphics/SVG/1.1/DTD/svg11.dtd">
<svg version="1.1" id="Layer_1" xmlns="http://www.w3.org/2000/svg" xmlns:xlink="http://www.w3.org/1999/xlink" x="0px" y="0px"
	 width="50px" height="50px" viewBox="0 0 50 50" style="enable-background:new 0 0 50 50;" xml:space="preserve">
<g>
	<path style="fill:#CCCCCC;" d="M39.401,48.463H10.599c-2.58,0-4.681-2.057-4.681-4.585v-21.85c0-2.625,2.057-4.682,4.681-4.682
		h28.803c2.624,0,4.682,2.056,4.682,4.682v21.85C44.083,46.406,41.981,48.463,39.401,48.463z M10.599,21.676
		c-0.214,0-0.352,0.14-0.352,0.353v21.85c0,0.093,0.117,0.254,0.352,0.254h28.803c0.218,0,0.351-0.148,0.351-0.254v-21.85
		c0-0.213-0.138-0.353-0.351-0.353H10.599z"/>
	<path style="fill:#CCCCCC;" d="M35.575,21.676c-1.198,0-2.166-0.969-2.166-2.165V8.132c0-1.228-1.037-2.265-2.265-2.265H18.856
		c-1.228,0-2.265,1.037-2.265,2.265v11.378c0,1.196-0.969,2.165-2.165,2.165c-1.197,0-2.165-0.969-2.165-2.165V8.132
		c0-3.638,2.959-6.595,6.595-6.595h12.289c3.635,0,6.594,2.957,6.594,6.595v11.378C37.738,20.707,36.771,21.676,35.575,21.676z"/>
	<path style="fill:#CCCCCC;" d="M25,37.286c-1.197,0-2.164-0.974-2.164-2.166v-4.432c0-1.197,0.967-2.166,2.164-2.166
		c1.198,0,2.165,0.969,2.165,2.166v4.432C27.165,36.313,26.198,37.286,25,37.286z"/>
</g>
</svg>
