<?xml version="1.0" encoding="utf-8"?>
<!-- Generator: Adobe Illustrator 16.0.0, SVG Export Plug-In . SVG Version: 6.00 Build 0)  -->
<!DOCTYPE svg PUBLIC "-//W3C//DTD SVG 1.1//EN" "http://www.w3.org/Graphics/SVG/1.1/DTD/svg11.dtd">
<svg version="1.1" id="Layer_1" xmlns="http://www.w3.org/2000/svg" xmlns:xlink="http://www.w3.org/1999/xlink" x="0px" y="0px"
	 width="50px" height="50px" viewBox="0 0 50 50" enable-background="new 0 0 50 50" xml:space="preserve">
<g>
	<path fill="#22BFD5" d="M44.091,41.596c-1.055,0-1.909-0.855-1.909-1.909c0-8.521-3.314-16.525-9.331-22.539
		c-6.013-6.016-14.016-9.329-22.535-9.329c-1.054,0-1.909-0.855-1.909-1.909C8.406,4.854,9.262,4,10.315,4
		c9.54,0,18.503,3.71,25.235,10.448c6.738,6.732,10.448,15.696,10.448,25.238C45.999,40.74,45.145,41.596,44.091,41.596z"/>
	<path fill="#22BFD5" d="M35.279,41.596C35.279,41.596,35.279,41.596,35.279,41.596c-1.055,0-1.908-0.855-1.908-1.91
		c0.002-6.16-2.396-11.952-6.751-16.307c-4.353-4.354-10.143-6.751-16.306-6.754c-1.054,0-1.908-0.854-1.908-1.91
		c0-1.054,0.855-1.907,1.909-1.907h0.001c7.182,0.002,13.931,2.798,19.003,7.871c5.077,5.077,7.871,11.827,7.869,19.01
		C37.189,40.742,36.334,41.596,35.279,41.596z"/>
	<path fill="#22BFD5" d="M26.478,41.596c-1.054,0-1.908-0.854-1.909-1.907c-0.002-3.805-1.486-7.384-4.181-10.081
		c-2.691-2.692-6.268-4.175-10.072-4.175c-1.054,0-1.909-0.854-1.909-1.909c0-1.054,0.855-1.909,1.909-1.909
		c4.824,0,9.359,1.881,12.772,5.295c3.414,3.419,5.296,7.955,5.299,12.776C28.388,40.739,27.533,41.595,26.478,41.596L26.478,41.596
		z"/>
	<path fill="#6C4197" d="M10.313,46c-1.687,0-3.272-0.657-4.465-1.847c-2.463-2.466-2.461-6.473,0-8.934
		c1.191-1.192,2.777-1.85,4.465-1.85l0,0c1.688,0,3.274,0.657,4.467,1.851c2.461,2.46,2.462,6.467,0.001,8.93
		C13.586,45.343,12,46,10.313,46z M10.313,37.188c-0.667,0-1.293,0.26-1.765,0.732c-0.975,0.973-0.973,2.556,0,3.531
		c0.941,0.941,2.59,0.94,3.534-0.002c0.97-0.974,0.972-2.557-0.001-3.528C11.608,37.448,10.981,37.188,10.313,37.188z"/>
</g>
</svg>
