<?xml version="1.0" encoding="utf-8"?>
<!-- Generator: Adobe Illustrator 16.0.0, SVG Export Plug-In . SVG Version: 6.00 Build 0)  -->
<!DOCTYPE svg PUBLIC "-//W3C//DTD SVG 1.1//EN" "http://www.w3.org/Graphics/SVG/1.1/DTD/svg11.dtd">
<svg version="1.1" id="Layer_1" xmlns="http://www.w3.org/2000/svg" xmlns:xlink="http://www.w3.org/1999/xlink" x="0px" y="0px"
	 width="50px" height="50px" viewBox="0 0 50 50" enable-background="new 0 0 50 50" xml:space="preserve">
<g>
	<polygon fill="#22BFD5" points="6.897,15.043 4,15.043 4,4 15.044,4 15.044,6.896 6.897,6.896 	"/>
	<polygon fill="#22BFD5" points="46,15.043 43.104,15.043 43.104,6.896 34.957,6.896 34.957,4 46,4 	"/>
	<polygon fill="#22BFD5" points="46,46 34.957,46 34.957,43.103 43.104,43.103 43.104,34.956 46,34.956 	"/>
	<polygon fill="#22BFD5" points="15.044,46 4,46 4,34.956 6.897,34.956 6.897,43.103 15.044,43.103 	"/>
	<path fill="#6C4197" d="M23.19,23.188H10.518V10.516H23.19V23.188z M13.415,20.293h6.879v-6.88h-6.879V20.293z"/>
	<rect x="15.225" y="15.223" fill="#22BFD5" width="3.259" height="3.259"/>
	<path fill="#6C4197" d="M23.19,39.482H10.518V26.811H23.19V39.482z M13.415,36.586h6.879v-6.88h-6.879V36.586z"/>
	<rect x="15.225" y="31.516" fill="#22BFD5" width="3.259" height="3.26"/>
	<rect x="31.518" y="31.516" fill="#22BFD5" width="3.26" height="3.26"/>
	<rect x="34.777" y="28.258" fill="#22BFD5" width="3.258" height="3.258"/>
	<rect x="28.26" y="28.258" fill="#22BFD5" width="3.258" height="3.258"/>
	<rect x="34.777" y="34.775" fill="#22BFD5" width="3.258" height="3.258"/>
	<rect x="28.26" y="34.775" fill="#22BFD5" width="3.258" height="3.258"/>
	<path fill="#6C4197" d="M39.484,23.188H26.812V10.516h12.673V23.188z M29.707,20.293h6.88v-6.88h-6.88V20.293z"/>
	<rect x="31.518" y="15.223" fill="#22BFD5" width="3.26" height="3.259"/>
</g>
</svg>
