<?xml version="1.0" encoding="utf-8"?>
<!-- Generator: Adobe Illustrator 16.0.0, SVG Export Plug-In . SVG Version: 6.00 Build 0)  -->
<!DOCTYPE svg PUBLIC "-//W3C//DTD SVG 1.1//EN" "http://www.w3.org/Graphics/SVG/1.1/DTD/svg11.dtd">
<svg version="1.1" id="Layer_1" xmlns="http://www.w3.org/2000/svg" xmlns:xlink="http://www.w3.org/1999/xlink" x="0px" y="0px"
	 width="50px" height="50px" viewBox="0 0 50 50" enable-background="new 0 0 50 50" xml:space="preserve">
<g>
	<path fill="#6C4197" d="M5.908,46c-0.431,0-0.864-0.146-1.22-0.442c-0.811-0.675-0.92-1.879-0.245-2.688l16.602-19.921
		c0.502-0.604,1.322-0.836,2.071-0.589l8.544,2.849L42.48,8.204c0.566-0.891,1.747-1.151,2.636-0.585
		c0.889,0.567,1.151,1.746,0.586,2.636l-11.621,18.26c-0.472,0.738-1.388,1.066-2.215,0.786l-8.723-2.907L7.375,45.313
		C6.998,45.767,6.455,46,5.908,46z"/>
	<path fill="#22BFD5" d="M5.909,46C4.855,46,4,45.145,4,44.091V5.909C4,4.855,4.855,4,5.909,4c1.054,0,1.909,0.855,1.909,1.909
		v38.182C7.818,45.145,6.963,46,5.909,46z"/>
	<path fill="#22BFD5" d="M44.091,46H5.909C4.855,46,4,45.145,4,44.091s0.855-1.909,1.909-1.909h38.182
		c1.054,0,1.909,0.855,1.909,1.909S45.145,46,44.091,46z"/>
</g>
</svg>
