<?xml version="1.0" encoding="utf-8"?>
<!-- Generator: Adobe Illustrator 16.0.0, SVG Export Plug-In . SVG Version: 6.00 Build 0)  -->
<!DOCTYPE svg PUBLIC "-//W3C//DTD SVG 1.1//EN" "http://www.w3.org/Graphics/SVG/1.1/DTD/svg11.dtd">
<svg version="1.1" id="Layer_1" xmlns="http://www.w3.org/2000/svg" xmlns:xlink="http://www.w3.org/1999/xlink" x="0px" y="0px"
	 width="50px" height="50px" viewBox="0 0 50 50" enable-background="new 0 0 50 50" xml:space="preserve">
<g>
	<path fill="#6C4197" d="M43.306,45c-0.261,0-0.524-0.061-0.767-0.181l-8.828-4.413l-8.017,3.552c-0.442,0.196-0.947,0.196-1.389,0
		l-8.017-3.552l-8.828,4.413c-0.571,0.283-1.252,0.229-1.769-0.143c-0.518-0.373-0.785-1.003-0.695-1.633L8.18,20.758
		c0.122-0.845,0.845-1.472,1.698-1.472h1.591c0.946,0,1.714,0.768,1.714,1.714s-0.768,1.714-1.714,1.714h-0.105L8.854,40.29
		l6.625-3.313c0.458-0.229,0.994-0.241,1.461-0.033L25,40.516l8.061-3.571c0.466-0.208,1.003-0.195,1.461,0.033l6.625,3.313
		l-2.511-17.576h-0.104c-0.946,0-1.714-0.768-1.714-1.714s0.768-1.714,1.714-1.714h1.592c0.853,0,1.575,0.627,1.697,1.472
		l3.183,22.286c0.09,0.63-0.177,1.26-0.695,1.633C44.011,44.891,43.659,45,43.306,45z"/>
	<path fill="#22BFD5" d="M25.003,38.786l-1.215-1.216c-0.465-0.464-11.389-11.485-11.372-19.99C12.417,10.645,18.062,5,25,5
		s12.584,5.645,12.584,12.583c0,8.455-10.904,19.517-11.368,19.984L25.003,38.786z M25,8.429c-5.048,0-9.155,4.107-9.155,9.155
		c-0.01,5.178,5.792,12.607,9.152,16.285c3.357-3.69,9.159-11.139,9.159-16.285C34.155,12.536,30.048,8.429,25,8.429z"/>
	<path fill="#6C4197" d="M25,23.873c-3.669,0-6.655-2.985-6.655-6.656c0-3.668,2.986-6.654,6.655-6.654
		c3.67,0,6.655,2.985,6.655,6.654C31.655,20.887,28.67,23.873,25,23.873z M25,13.991c-1.779,0-3.227,1.446-3.227,3.225
		c0,1.78,1.448,3.228,3.227,3.228c1.779,0,3.227-1.448,3.227-3.228C28.227,15.438,26.779,13.991,25,13.991z"/>
</g>
</svg>
