<?xml version="1.0" encoding="utf-8"?>
<!-- Generator: Adobe Illustrator 16.0.0, SVG Export Plug-In . SVG Version: 6.00 Build 0)  -->
<!DOCTYPE svg PUBLIC "-//W3C//DTD SVG 1.1//EN" "http://www.w3.org/Graphics/SVG/1.1/DTD/svg11.dtd">
<svg version="1.1" id="Layer_1" xmlns="http://www.w3.org/2000/svg" xmlns:xlink="http://www.w3.org/1999/xlink" x="0px" y="0px"
	 width="50px" height="50px" viewBox="0 0 50 50" enable-background="new 0 0 50 50" xml:space="preserve">
<g>
	<path fill="#22BFD5" d="M18.555,46c-0.291,0-0.584-0.065-0.854-0.201c-0.647-0.323-1.056-0.984-1.056-1.709V33.706
		c0-1.054,0.855-1.909,1.91-1.909c1.055,0,1.91,0.855,1.91,1.909v6.564l3.866-2.901c0.847-0.63,2.042-0.461,2.674,0.382
		c0.634,0.845,0.462,2.042-0.381,2.675l-6.923,5.192C19.364,45.871,18.96,46,18.555,46z"/>
	<path fill="#6C4197" d="M18.792,35.488c-0.456,0-0.914-0.163-1.279-0.492c-0.783-0.706-0.846-1.915-0.138-2.697l17.069-18.908
		c0.707-0.785,1.913-0.845,2.697-0.138c0.783,0.706,0.846,1.915,0.138,2.697L20.21,34.857
		C19.833,35.275,19.313,35.488,18.792,35.488z"/>
	<path fill="#22BFD5" d="M33.058,44.979L33.058,44.979c-0.701,0-1.386-0.204-1.979-0.589L6.167,28.271
		c-1.102-0.713-1.722-1.92-1.66-3.228c0.061-1.31,0.792-2.451,1.955-3.057L40.169,4.399c1.543-0.803,3.52-0.354,4.573,1.01
		c0.689,0.893,0.921,2.037,0.634,3.138l-8.792,33.708C36.165,43.859,34.715,44.979,33.058,44.979z M8.501,25.231l24.449,15.82
		l8.636-33.11L8.501,25.231z"/>
</g>
</svg>
