<?xml version="1.0" encoding="utf-8"?>
<!-- Generator: Adobe Illustrator 16.0.0, SVG Export Plug-In . SVG Version: 6.00 Build 0)  -->
<!DOCTYPE svg PUBLIC "-//W3C//DTD SVG 1.1//EN" "http://www.w3.org/Graphics/SVG/1.1/DTD/svg11.dtd">
<svg version="1.1" id="Layer_1" xmlns="http://www.w3.org/2000/svg" xmlns:xlink="http://www.w3.org/1999/xlink" x="0px" y="0px"
	 width="50px" height="50px" viewBox="0 0 50 50" enable-background="new 0 0 50 50" xml:space="preserve">
<g>
	<path fill="#6C4197" d="M39.775,26.16c-2.656,0-4.818-2.161-4.818-4.817v-6.121c0-0.875-0.711-1.587-1.585-1.587h-2.625
		c-2.655,0-4.816-2.161-4.816-4.817C25.931,6.161,28.092,4,30.747,4h9.028c2.658,0,4.82,2.161,4.82,4.817v12.526
		C44.596,23.999,42.434,26.16,39.775,26.16z M30.747,7.231c-0.875,0-1.585,0.711-1.585,1.586c0,0.875,0.71,1.586,1.585,1.586h2.625
		c2.655,0,4.815,2.162,4.815,4.818v6.121c0,0.875,0.712,1.586,1.588,1.586s1.589-0.712,1.589-1.586V8.817
		c0-0.875-0.713-1.586-1.589-1.586H30.747z"/>
	<path fill="#6C4197" d="M22.748,46H10.223c-2.656,0-4.818-2.16-4.818-4.817c0-2.656,2.162-4.818,4.818-4.818h6.118
		c0.861,0,1.588-0.726,1.588-1.585v-2.627c0-2.656,2.162-4.816,4.819-4.816c2.654,0,4.813,2.16,4.813,4.816v9.03
		C27.562,43.84,25.402,46,22.748,46z M10.223,39.596c-0.876,0-1.588,0.711-1.588,1.587c0,0.875,0.712,1.587,1.588,1.587h12.525
		c0.872,0,1.583-0.712,1.583-1.587v-9.03c0-0.875-0.711-1.586-1.583-1.586c-0.876,0-1.589,0.711-1.589,1.586v2.627
		c0,2.655-2.161,4.816-4.818,4.816H10.223z"/>
	<path fill="#22BFD5" d="M12.273,32.719c-2.656,0-4.818-2.162-4.818-4.818v-9.029c0-2.657,2.159-4.817,4.814-4.817h12.528
		c2.656,0,4.817,2.16,4.817,4.817s-2.161,4.818-4.817,4.818h-6.123c-0.875,0-1.585,0.712-1.585,1.586V27.9
		C17.09,30.557,14.929,32.719,12.273,32.719z M12.27,17.285c-0.873,0-1.584,0.712-1.584,1.586V27.9c0,0.875,0.712,1.588,1.588,1.588
		c0.875,0,1.585-0.713,1.585-1.588v-2.624c0-2.657,2.161-4.817,4.816-4.817h6.123c0.875,0,1.586-0.712,1.586-1.588
		c0-0.875-0.711-1.586-1.586-1.586H12.27z"/>
</g>
</svg>
