<?xml version="1.0" encoding="utf-8"?>
<!-- Generator: Adobe Illustrator 16.0.0, SVG Export Plug-In . SVG Version: 6.00 Build 0)  -->
<!DOCTYPE svg PUBLIC "-//W3C//DTD SVG 1.1//EN" "http://www.w3.org/Graphics/SVG/1.1/DTD/svg11.dtd">
<svg version="1.1" id="Layer_1" xmlns="http://www.w3.org/2000/svg" xmlns:xlink="http://www.w3.org/1999/xlink" x="0px" y="0px"
	 width="50px" height="50px" viewBox="0 0 50 50" enable-background="new 0 0 50 50" xml:space="preserve">
<g>
	<path fill="#22BFD5" d="M38.28,46H15.04c-1.054,0-1.909-0.855-1.909-1.91c0-1.053,0.855-1.908,1.909-1.908H38.28
		c1.694,0,3.071-1.377,3.071-3.072V7.818H16.949v31.291c0,1.057-0.855,1.91-1.909,1.91c-1.054,0-1.909-0.854-1.909-1.91V7.569
		C13.13,5.601,14.731,4,16.7,4h24.902c1.968,0,3.568,1.601,3.568,3.569v31.54C45.17,42.91,42.079,46,38.28,46z"/>
	<path fill="#22BFD5" d="M10.889,46c-3.341,0-6.059-2.719-6.059-6.061V24.17c0-1.969,1.601-3.57,3.568-3.57h6.641
		c1.054,0,1.909,0.855,1.909,1.909v17.431C16.949,43.281,14.23,46,10.889,46z M8.648,24.418v15.521c0,1.236,1.005,2.242,2.241,2.242
		c1.236,0,2.241-1.006,2.241-2.242V24.418H8.648z"/>
	<path fill="#22BFD5" d="M20.02,46h-8.3c-1.054,0-1.909-0.855-1.909-1.91c0-1.053,0.855-1.908,1.909-1.908h8.3
		c1.054,0,1.909,0.855,1.909,1.908C21.929,45.145,21.074,46,20.02,46z"/>
	<path fill="#6C4197" d="M36.621,18.275H21.68c-1.054,0-1.909-0.854-1.909-1.909c0-1.054,0.855-1.909,1.909-1.909h14.941
		c1.054,0,1.909,0.855,1.909,1.909C38.53,17.422,37.675,18.275,36.621,18.275z"/>
	<path fill="#6C4197" d="M36.621,24.916H21.68c-1.054,0-1.909-0.854-1.909-1.908c0-1.056,0.855-1.909,1.909-1.909h14.941
		c1.054,0,1.909,0.854,1.909,1.909C38.53,24.063,37.675,24.916,36.621,24.916z"/>
	<path fill="#6C4197" d="M36.621,31.557H21.68c-1.054,0-1.909-0.855-1.909-1.908c0-1.055,0.855-1.91,1.909-1.91h14.941
		c1.054,0,1.909,0.855,1.909,1.91C38.53,30.701,37.675,31.557,36.621,31.557z"/>
</g>
</svg>
