<?xml version="1.0" encoding="utf-8"?>
<!-- Generator: Adobe Illustrator 16.0.0, SVG Export Plug-In . SVG Version: 6.00 Build 0)  -->
<!DOCTYPE svg PUBLIC "-//W3C//DTD SVG 1.1//EN" "http://www.w3.org/Graphics/SVG/1.1/DTD/svg11.dtd">
<svg version="1.1" id="Layer_1" xmlns="http://www.w3.org/2000/svg" xmlns:xlink="http://www.w3.org/1999/xlink" x="0px" y="0px"
	 width="50px" height="50px" viewBox="0 0 50 50" enable-background="new 0 0 50 50" xml:space="preserve">
<g>
	<path fill="#22BFD5" d="M43.225,46H6.777c-2.009,0-3.645-1.635-3.645-3.645V11.117c0-2.011,1.635-3.646,3.645-3.646h5.206
		c1.055,0,1.909,0.855,1.909,1.909c0,1.055-0.854,1.909-1.909,1.909H6.951v30.894H43.05V11.288h-5.033
		c-1.054,0-1.908-0.854-1.908-1.909c0-1.054,0.854-1.909,1.908-1.909h5.208c2.008,0,3.643,1.635,3.643,3.646v31.239
		C46.867,44.365,45.232,46,43.225,46z"/>
	<path fill="#22BFD5" d="M15.455,14.761c-1.054,0-1.909-0.855-1.909-1.91V5.909C13.546,4.855,14.401,4,15.455,4
		s1.909,0.855,1.909,1.909v6.942C17.364,13.906,16.508,14.761,15.455,14.761z"/>
	<path fill="#22BFD5" d="M34.547,14.761c-1.056,0-1.911-0.855-1.911-1.91V5.909C32.636,4.855,33.491,4,34.547,4
		c1.054,0,1.908,0.855,1.908,1.909v6.942C36.455,13.906,35.601,14.761,34.547,14.761z"/>
	<path fill="#6C4197" d="M25.867,21.703h-1.735c-1.054,0-1.909-0.854-1.909-1.909s0.855-1.909,1.909-1.909h1.735
		c1.054,0,1.91,0.854,1.91,1.909S26.921,21.703,25.867,21.703z"/>
	<path fill="#6C4197" d="M34.547,21.703H32.81c-1.054,0-1.908-0.854-1.908-1.909s0.854-1.909,1.908-1.909h1.737
		c1.054,0,1.908,0.854,1.908,1.909S35.601,21.703,34.547,21.703z"/>
	<path fill="#6C4197" d="M17.191,30.381h-1.736c-1.054,0-1.909-0.854-1.909-1.909c0-1.056,0.855-1.909,1.909-1.909h1.736
		c1.054,0,1.909,0.854,1.909,1.909C19.1,29.526,18.245,30.381,17.191,30.381z"/>
	<path fill="#6C4197" d="M25.867,30.381h-1.735c-1.054,0-1.909-0.854-1.909-1.909c0-1.056,0.855-1.909,1.909-1.909h1.735
		c1.054,0,1.91,0.854,1.91,1.909C27.777,29.526,26.921,30.381,25.867,30.381z"/>
	<path fill="#6C4197" d="M34.547,30.381H32.81c-1.054,0-1.908-0.854-1.908-1.909c0-1.056,0.854-1.909,1.908-1.909h1.737
		c1.054,0,1.908,0.854,1.908,1.909C36.455,29.526,35.601,30.381,34.547,30.381z"/>
	<path fill="#6C4197" d="M17.191,39.057h-1.736c-1.054,0-1.909-0.854-1.909-1.909c0-1.054,0.855-1.909,1.909-1.909h1.736
		c1.054,0,1.909,0.855,1.909,1.909C19.1,38.203,18.245,39.057,17.191,39.057z"/>
	<path fill="#6C4197" d="M25.867,39.057h-1.735c-1.054,0-1.909-0.854-1.909-1.909c0-1.054,0.855-1.909,1.909-1.909h1.735
		c1.054,0,1.91,0.855,1.91,1.909C27.777,38.203,26.921,39.057,25.867,39.057z"/>
	<path fill="#22BFD5" d="M31.074,11.288H18.926c-1.055,0-1.909-0.854-1.909-1.909c0-1.054,0.854-1.909,1.909-1.909h12.148
		c1.054,0,1.909,0.855,1.909,1.909C32.983,10.435,32.128,11.288,31.074,11.288z"/>
</g>
<g>
	<path fill="#6C4197" d="M120.1,36.063c-7.461,0-13.529-6.07-13.529-13.53c0-1.054,0.855-1.909,1.908-1.909
		c1.054,0,1.91,0.854,1.91,1.909c0,5.356,4.355,9.711,9.711,9.711s9.713-4.355,9.713-9.711c0-1.054,0.854-1.909,1.909-1.909
		c1.054,0,1.909,0.854,1.909,1.909C133.631,29.992,127.563,36.063,120.1,36.063z"/>
	<path fill="#6C4197" d="M120.1,42.703c-1.054,0-1.908-0.855-1.908-1.91v-6.639c0-1.055,0.854-1.91,1.908-1.91
		c1.055,0,1.91,0.855,1.91,1.91v6.639C122.01,41.848,121.154,42.703,120.1,42.703z"/>
	<path fill="#6C4197" d="M123.42,42.703h-6.641c-1.053,0-1.908-0.855-1.908-1.91s0.855-1.908,1.908-1.908h6.641
		c1.054,0,1.91,0.854,1.91,1.908S124.474,42.703,123.42,42.703z"/>
	<g>
		<path fill="#6C4197" d="M126.74,12.822h-1.66c-1.053,0-1.908-0.854-1.908-1.909s0.855-1.909,1.908-1.909h1.66
			c1.056,0,1.909,0.854,1.909,1.909S127.796,12.822,126.74,12.822z"/>
		<path fill="#6C4197" d="M126.74,17.801h-1.66c-1.053,0-1.908-0.854-1.908-1.909s0.855-1.909,1.908-1.909h1.66
			c1.056,0,1.909,0.854,1.909,1.909S127.796,17.801,126.74,17.801z"/>
		<path fill="#6C4197" d="M126.74,22.782h-1.66c-1.053,0-1.908-0.855-1.908-1.91c0-1.054,0.855-1.909,1.908-1.909h1.66
			c1.056,0,1.909,0.855,1.909,1.909C128.649,21.927,127.796,22.782,126.74,22.782z"/>
	</g>
	<g>
		<path fill="#6C4197" d="M115.12,12.822h-1.661c-1.055,0-1.908-0.854-1.908-1.909s0.854-1.909,1.908-1.909h1.661
			c1.054,0,1.909,0.854,1.909,1.909S116.174,12.822,115.12,12.822z"/>
		<path fill="#6C4197" d="M115.12,17.801h-1.661c-1.055,0-1.908-0.854-1.908-1.909s0.854-1.909,1.908-1.909h1.661
			c1.054,0,1.909,0.854,1.909,1.909S116.174,17.801,115.12,17.801z"/>
		<path fill="#6C4197" d="M115.12,22.782h-1.661c-1.055,0-1.908-0.855-1.908-1.91c0-1.054,0.854-1.909,1.908-1.909h1.661
			c1.054,0,1.909,0.855,1.909,1.909C117.029,21.927,116.174,22.782,115.12,22.782z"/>
	</g>
	<path fill="#22BFD5" d="M120.1,31.082c-4.715,0-8.549-3.834-8.549-8.549V9.252c0-4.714,3.834-8.55,8.549-8.55s8.55,3.835,8.55,8.55
		v13.28C128.649,27.248,124.814,31.082,120.1,31.082z M120.1,4.521c-2.607,0-4.731,2.123-4.731,4.731v13.28
		c0,2.609,2.124,4.731,4.731,4.731c2.609,0,4.732-2.122,4.732-4.731V9.252C124.832,6.644,122.709,4.521,120.1,4.521z"/>
</g>
</svg>
