<?xml version="1.0" encoding="utf-8"?>
<!-- Generator: Adobe Illustrator 16.0.0, SVG Export Plug-In . SVG Version: 6.00 Build 0)  -->
<!DOCTYPE svg PUBLIC "-//W3C//DTD SVG 1.1//EN" "http://www.w3.org/Graphics/SVG/1.1/DTD/svg11.dtd">
<svg version="1.1" id="Layer_1" xmlns="http://www.w3.org/2000/svg" xmlns:xlink="http://www.w3.org/1999/xlink" x="0px" y="0px"
	 width="50px" height="50px" viewBox="0 0 50 50" enable-background="new 0 0 50 50" xml:space="preserve">
<g>
	<path fill="#6C4197" d="M31.844,23.92c-4.271,0-7.748-3.574-7.748-7.967v-3.487c0-4.393,3.476-7.966,7.748-7.966
		c4.273,0,7.75,3.573,7.75,7.966v3.487C39.594,20.347,36.117,23.92,31.844,23.92z M31.844,8.228c-2.217,0-4.021,1.901-4.021,4.239
		v3.487c0,2.338,1.804,4.239,4.021,4.239c2.219,0,4.023-1.901,4.023-4.239v-3.487C35.867,10.128,34.063,8.228,31.844,8.228z"/>
	<path fill="#22BFD5" d="M13.665,21.501c-3.731,0-6.768-3.036-6.768-6.767c0-3.732,3.036-6.768,6.768-6.768
		c3.732,0,6.769,3.036,6.769,6.768C20.434,18.465,17.397,21.501,13.665,21.501z M13.665,11.694c-1.676,0-3.041,1.364-3.041,3.041
		c0,1.675,1.364,3.039,3.041,3.039c1.677,0,3.042-1.364,3.042-3.039C16.707,13.058,15.342,11.694,13.665,11.694z"/>
	<path fill="#6C4197" d="M14.189,39.614H4.575c-1.16,0-2.248-0.516-2.987-1.415c-0.712-0.866-0.997-1.983-0.783-3.066
		c1.251-6.381,6.88-11.015,13.385-11.015c2.897,0,5.663,0.897,7.997,2.594c0.832,0.604,1.017,1.77,0.411,2.603
		c-0.604,0.833-1.771,1.019-2.603,0.412c-1.693-1.231-3.701-1.882-5.806-1.882c-4.727,0-8.818,3.369-9.728,8.009
		c0.005-0.017,0.052,0.033,0.114,0.033h9.614c1.029,0,1.864,0.835,1.864,1.864C16.053,38.779,15.219,39.614,14.189,39.614z"/>
	<path fill="#22BFD5" d="M45.423,45.5H18.267c-1.116,0-2.175-0.485-2.908-1.331c-0.726-0.836-1.052-1.939-0.896-3.027
		c1.221-8.585,8.692-15.063,17.38-15.063c8.688,0,16.161,6.478,17.384,15.065c0.155,1.085-0.172,2.188-0.897,3.024
		C47.599,45.015,46.538,45.5,45.423,45.5z M31.844,29.807c-6.844,0-12.729,5.101-13.69,11.862l0.114,0.104h27.156
		c0.045,0,0.074-0.023,0.092-0.045C44.575,34.907,38.688,29.807,31.844,29.807z"/>
</g>
</svg>
