<?xml version="1.0" encoding="utf-8"?>
<!-- Generator: Adobe Illustrator 16.0.0, SVG Export Plug-In . SVG Version: 6.00 Build 0)  -->
<!DOCTYPE svg PUBLIC "-//W3C//DTD SVG 1.1//EN" "http://www.w3.org/Graphics/SVG/1.1/DTD/svg11.dtd">
<svg version="1.1" id="Layer_1" xmlns="http://www.w3.org/2000/svg" xmlns:xlink="http://www.w3.org/1999/xlink" x="0px" y="0px"
	 width="50px" height="50px" viewBox="0 0 50 50" enable-background="new 0 0 50 50" xml:space="preserve">
<g>
	<rect x="15.641" y="4.138" fill="#6C4197" width="3.818" height="38.182"/>
	<path fill="#6C4197" d="M11.683,12.688h-6.64c-1.054,0-1.909-0.855-1.909-1.909c0-1.054,0.855-1.909,1.909-1.909h6.64
		c1.054,0,1.909,0.855,1.909,1.909C13.592,11.833,12.737,12.688,11.683,12.688z"/>
	<path fill="#6C4197" d="M11.683,20.988h-6.64c-1.054,0-1.909-0.855-1.909-1.909c0-1.054,0.855-1.909,1.909-1.909h6.64
		c1.054,0,1.909,0.855,1.909,1.909C13.592,20.133,12.737,20.988,11.683,20.988z"/>
	<path fill="#6C4197" d="M11.683,29.288h-6.64c-1.054,0-1.909-0.854-1.909-1.909c0-1.054,0.855-1.909,1.909-1.909h6.64
		c1.054,0,1.909,0.855,1.909,1.909C13.592,28.434,12.737,29.288,11.683,29.288z"/>
	<path fill="#6C4197" d="M11.683,37.589h-6.64c-1.054,0-1.909-0.855-1.909-1.909c0-1.055,0.855-1.909,1.909-1.909h6.64
		c1.054,0,1.909,0.854,1.909,1.909C13.592,36.733,12.737,37.589,11.683,37.589z"/>
	<path fill="#22BFD5" d="M38.939,28.954l0.14,10.772c0,0.778-0.056,2.773-0.834,2.773H8.5v-35h29.745
		c0.778,0,0.255-0.82,0.255-0.042v6.544l4-3.659V7.458c0-2.883-1.371-2.958-4.255-2.958H10.024C8.055,4.5,5.5,3.83,5.5,5.799v34.86
		c0,1.969,2.555,5.841,4.524,5.841h28.221c2.884,0,4.255-4.616,4.255-7.5V25.119L38.939,28.954z"/>
	<path fill="#22BFD5" d="M29.353,32.7c-0.361,0-0.714-0.142-0.978-0.404c-0.369-0.37-0.498-0.917-0.333-1.413l1.577-4.73
		c0.15-0.454,0.527-0.796,0.993-0.907c0.465-0.108,0.955,0.03,1.293,0.368l3.153,3.153c0.338,0.338,0.477,0.827,0.367,1.294
		c-0.11,0.465-0.453,0.84-0.907,0.991l-4.73,1.577C29.646,32.678,29.499,32.7,29.353,32.7z"/>
	<path fill="#22BFD5" d="M45.119,20.086c-0.354,0-0.706-0.135-0.976-0.405l-3.153-3.153c-0.539-0.539-0.539-1.412,0-1.951
		c0.54-0.54,1.413-0.54,1.953,0l3.151,3.152c0.54,0.54,0.54,1.413,0,1.953C45.825,19.951,45.474,20.086,45.119,20.086z"/>
	<path fill="#6C4197" d="M34.081,31.123c-0.353,0-0.706-0.135-0.976-0.404l-3.153-3.153c-0.539-0.539-0.539-1.413,0-1.952
		l13.403-13.404c0.519-0.517,1.435-0.517,1.953,0l3.153,3.153c0.538,0.54,0.538,1.413,0,1.953L35.059,30.719
		C34.788,30.988,34.436,31.123,34.081,31.123z M32.881,26.59l1.2,1.201L45.532,16.34l-1.201-1.201L32.881,26.59z"/>
</g>
</svg>
