<?xml version="1.0" encoding="utf-8"?>
<!-- Generator: Adobe Illustrator 16.0.0, SVG Export Plug-In . SVG Version: 6.00 Build 0)  -->
<!DOCTYPE svg PUBLIC "-//W3C//DTD SVG 1.1//EN" "http://www.w3.org/Graphics/SVG/1.1/DTD/svg11.dtd">
<svg version="1.1" id="Layer_1" xmlns="http://www.w3.org/2000/svg" xmlns:xlink="http://www.w3.org/1999/xlink" x="0px" y="0px"
	 width="50px" height="50px" viewBox="0 0 50 50" enable-background="new 0 0 50 50" xml:space="preserve">
<g>
	<path fill="#22BFD5" d="M36.348,46H9.278c-2.919,0-5.294-2.374-5.294-5.294V13.637c0-2.919,2.375-5.295,5.294-5.295h12.9
		c1.055,0,1.911,0.856,1.911,1.911s-0.856,1.911-1.911,1.911h-12.9c-0.812,0-1.473,0.662-1.473,1.474v27.069
		c0,0.813,0.661,1.473,1.473,1.473h27.07c0.813,0,1.475-0.66,1.475-1.473V27.172c0-1.055,0.855-1.911,1.91-1.911
		s1.911,0.856,1.911,1.911v13.534C41.644,43.626,39.268,46,36.348,46z"/>
	<g>
		<path fill="#6C4197" d="M27.89,30.774h-6.769c-1.055,0-1.911-0.856-1.911-1.911v-6.768c0-0.506,0.202-0.992,0.56-1.351
			L35.493,5.022c1.362-1.363,3.734-1.361,5.094,0l4.376,4.376c1.404,1.404,1.404,3.689,0,5.094L29.24,30.214
			C28.882,30.572,28.396,30.774,27.89,30.774z M23.032,26.953h4.066l15.008-15.009l-4.064-4.065L23.032,22.887V26.953z"/>
		<path fill="#6C4197" d="M39.732,18.931c-0.489,0-0.978-0.187-1.351-0.56l-6.769-6.768c-0.746-0.747-0.746-1.956,0-2.702
			c0.746-0.746,1.955-0.746,2.702,0l6.768,6.768c0.747,0.747,0.747,1.956,0,2.702C40.71,18.745,40.222,18.931,39.732,18.931z"/>
		<path fill="#6C4197" d="M19.429,32.466c-0.489,0-0.978-0.187-1.351-0.56c-0.747-0.747-0.747-1.956,0-2.702l1.691-1.691
			c0.747-0.746,1.956-0.746,2.702,0c0.747,0.746,0.747,1.955,0,2.701l-1.691,1.692C20.407,32.279,19.918,32.466,19.429,32.466z"/>
	</g>
</g>
</svg>
