<?xml version="1.0" encoding="utf-8"?>
<!-- Generator: Adobe Illustrator 16.0.0, SVG Export Plug-In . SVG Version: 6.00 Build 0)  -->
<!DOCTYPE svg PUBLIC "-//W3C//DTD SVG 1.1//EN" "http://www.w3.org/Graphics/SVG/1.1/DTD/svg11.dtd">
<svg version="1.1" id="Layer_1" xmlns="http://www.w3.org/2000/svg" xmlns:xlink="http://www.w3.org/1999/xlink" x="0px" y="0px"
	 width="50px" height="50px" viewBox="0 0 50 50" enable-background="new 0 0 50 50" xml:space="preserve">
<g>
	<path fill="#6C4197" d="M24.999,39.359c-7.461,0-13.529-6.07-13.529-13.529c0-1.055,0.855-1.909,1.908-1.909
		c1.054,0,1.91,0.854,1.91,1.909c0,5.355,4.355,9.711,9.711,9.711c5.356,0,9.714-4.355,9.714-9.711c0-1.055,0.854-1.909,1.908-1.909
		s1.91,0.854,1.91,1.909C38.531,33.289,32.463,39.359,24.999,39.359z"/>
	<path fill="#6C4197" d="M24.999,46c-1.054,0-1.908-0.855-1.908-1.91v-6.639c0-1.055,0.854-1.91,1.908-1.91
		c1.056,0,1.911,0.855,1.911,1.91v6.639C26.91,45.145,26.055,46,24.999,46z"/>
	<path fill="#6C4197" d="M28.32,46h-6.642c-1.053,0-1.908-0.855-1.908-1.91s0.855-1.908,1.908-1.908h6.642
		c1.053,0,1.91,0.854,1.91,1.908S29.373,46,28.32,46z"/>
	<g>
		<path fill="#6C4197" d="M31.641,16.119h-1.66c-1.053,0-1.908-0.854-1.908-1.909c0-1.055,0.855-1.909,1.908-1.909h1.66
			c1.055,0,1.908,0.854,1.908,1.909C33.549,15.266,32.695,16.119,31.641,16.119z"/>
		<path fill="#6C4197" d="M31.641,21.099h-1.66c-1.053,0-1.908-0.854-1.908-1.909c0-1.056,0.855-1.909,1.908-1.909h1.66
			c1.055,0,1.908,0.854,1.908,1.909C33.549,20.244,32.695,21.099,31.641,21.099z"/>
		<path fill="#6C4197" d="M31.641,26.078h-1.66c-1.053,0-1.908-0.854-1.908-1.909c0-1.054,0.855-1.908,1.908-1.908h1.66
			c1.055,0,1.908,0.854,1.908,1.908C33.549,25.224,32.695,26.078,31.641,26.078z"/>
	</g>
	<g>
		<path fill="#6C4197" d="M20.02,16.119h-1.661c-1.055,0-1.908-0.854-1.908-1.909c0-1.055,0.854-1.909,1.908-1.909h1.661
			c1.054,0,1.909,0.854,1.909,1.909C21.929,15.266,21.073,16.119,20.02,16.119z"/>
		<path fill="#6C4197" d="M20.02,21.099h-1.661c-1.055,0-1.908-0.854-1.908-1.909c0-1.056,0.854-1.909,1.908-1.909h1.661
			c1.054,0,1.909,0.854,1.909,1.909C21.929,20.244,21.073,21.099,20.02,21.099z"/>
		<path fill="#6C4197" d="M20.02,26.078h-1.661c-1.055,0-1.908-0.854-1.908-1.909c0-1.054,0.854-1.908,1.908-1.908h1.661
			c1.054,0,1.909,0.854,1.909,1.908C21.929,25.224,21.073,26.078,20.02,26.078z"/>
	</g>
	<path fill="#22BFD5" d="M24.999,34.379c-4.715,0-8.549-3.834-8.549-8.549V12.55c0-4.715,3.834-8.55,8.549-8.55
		c4.716,0,8.55,3.835,8.55,8.55v13.28C33.549,30.545,29.715,34.379,24.999,34.379z M24.999,7.818c-2.607,0-4.731,2.123-4.731,4.731
		v13.28c0,2.609,2.124,4.73,4.731,4.73c2.61,0,4.733-2.121,4.733-4.73V12.55C29.732,9.941,27.609,7.818,24.999,7.818z"/>
</g>
</svg>
