<?xml version="1.0" encoding="iso-8859-1"?>
<!-- Generator: Adobe Illustrator 16.0.0, SVG Export Plug-In . SVG Version: 6.00 Build 0)  -->
<!DOCTYPE svg PUBLIC "-//W3C//DTD SVG 1.1//EN" "http://www.w3.org/Graphics/SVG/1.1/DTD/svg11.dtd">
<svg version="1.1" id="Layer_1" xmlns="http://www.w3.org/2000/svg" xmlns:xlink="http://www.w3.org/1999/xlink" x="0px" y="0px"
	 width="50px" height="50px" viewBox="0 0 50 50" style="enable-background:new 0 0 50 50;" xml:space="preserve">
<g>
	<path style="fill:#CCCCCC;" d="M25,41.355c-10.054,0-18.922-6.105-22.589-15.548c-0.188-0.486-0.188-1.023-0.004-1.51
		C6.056,14.79,14.926,8.645,25,8.645c10.076,0,18.942,6.145,22.592,15.652c0.187,0.486,0.187,1.023-0.002,1.51
		C43.92,35.25,35.057,41.355,25,41.355z M6.622,25.045C9.827,32.438,16.958,37.17,25,37.17c8.045,0,15.171-4.732,18.379-12.125
		C40.187,17.596,33.059,12.83,25,12.83C16.942,12.83,9.814,17.596,6.622,25.045z"/>
	<path style="fill:#CCCCCC;" d="M25,33.956c-4.966,0-9.004-3.993-9.004-8.908c0-4.966,4.038-9.004,9.004-9.004
		s9.006,4.038,9.006,9.004C34.006,29.963,29.966,33.956,25,33.956z M25,20.229c-2.657,0-4.819,2.164-4.819,4.819
		c0,2.604,2.162,4.724,4.819,4.724c2.659,0,4.819-2.119,4.819-4.724C29.819,22.393,27.659,20.229,25,20.229z"/>
</g>
</svg>
