<?xml version="1.0" encoding="iso-8859-1"?>
<!-- Generator: Adobe Illustrator 16.0.0, SVG Export Plug-In . SVG Version: 6.00 Build 0)  -->
<!DOCTYPE svg PUBLIC "-//W3C//DTD SVG 1.1//EN" "http://www.w3.org/Graphics/SVG/1.1/DTD/svg11.dtd">
<svg version="1.1" id="Layer_1" xmlns="http://www.w3.org/2000/svg" xmlns:xlink="http://www.w3.org/1999/xlink" x="0px" y="0px"
	 width="50px" height="50px" viewBox="0 0 50 50" style="enable-background:new 0 0 50 50;" xml:space="preserve">
<g>
	<path style="fill:#C6C6C6;" d="M24.999,41.436c-10.101,0-19.009-6.134-22.699-15.624c-0.188-0.484-0.188-1.023-0.004-1.51
		c1.687-4.421,4.698-8.341,8.472-11.04c0.946-0.672,2.262-0.451,2.936,0.488c0.673,0.948,0.455,2.258-0.491,2.936
		c-2.896,2.066-5.242,5.015-6.679,8.358c3.221,7.431,10.381,12.188,18.465,12.188c4.296,0,8.366-1.314,11.769-3.804
		c0.941-0.689,2.257-0.475,2.94,0.459c0.683,0.938,0.477,2.255-0.46,2.938C35.116,39.841,30.192,41.436,24.999,41.436z
		 M42.902,32.238c-0.441,0-0.884-0.138-1.259-0.421c-0.933-0.696-1.119-2.015-0.424-2.94c0.889-1.185,1.651-2.496,2.244-3.837
		c-3.207-7.477-10.367-12.266-18.465-12.266c-1.936,0-3.805,0.266-5.559,0.792c-1.12,0.341-2.284-0.299-2.619-1.412
		c-0.334-1.111,0.298-2.284,1.414-2.62c2.141-0.64,4.421-0.965,6.763-0.965c10.127,0,19.037,6.172,22.704,15.726
		c0.188,0.488,0.188,1.033-0.004,1.521c-0.759,1.948-1.838,3.88-3.114,5.582C44.174,31.948,43.54,32.238,42.902,32.238z"/>
	<path style="fill:#C6C6C6;" d="M24.999,34.001c-4.987,0-9.047-4.013-9.047-8.95c0-1.997,0.656-3.919,1.887-5.566
		c0.696-0.932,2.021-1.111,2.944-0.419c0.928,0.696,1.12,2.014,0.419,2.942c-0.473,0.636-1.044,1.68-1.044,3.043
		c0,2.615,2.172,4.746,4.84,4.746c1.486,0,2.882-0.682,3.845-1.865c0.736-0.899,2.053-1.04,2.958-0.311
		c0.901,0.731,1.04,2.057,0.309,2.961C30.348,32.754,27.756,34.001,24.999,34.001z"/>
	<path style="fill:#C6C6C6;" d="M44.075,41.826c-0.45,0-0.901-0.141-1.285-0.437L4.642,11.943c-0.919-0.709-1.093-2.027-0.379-2.949
		c0.709-0.926,2.035-1.091,2.949-0.379L45.36,38.059c0.919,0.712,1.093,2.03,0.379,2.949C45.325,41.548,44.7,41.826,44.075,41.826z"
		/>
	<path style="fill:#C6C6C6;" d="M31.361,24.315c-0.781,0-1.535-0.437-1.897-1.191c-0.78-1.628-2.319-2.724-4.117-2.929
		c-1.155-0.131-1.982-1.175-1.848-2.329c0.134-1.155,1.214-1.972,2.33-1.852c3.238,0.375,6.018,2.349,7.428,5.289
		c0.504,1.048,0.063,2.304-0.986,2.806C31.977,24.248,31.668,24.315,31.361,24.315z"/>
</g>
</svg>
