<?xml version="1.0" encoding="iso-8859-1"?>
<!-- Generator: Adobe Illustrator 16.0.0, SVG Export Plug-In . SVG Version: 6.00 Build 0)  -->
<!DOCTYPE svg PUBLIC "-//W3C//DTD SVG 1.1//EN" "http://www.w3.org/Graphics/SVG/1.1/DTD/svg11.dtd">
<svg version="1.1" id="Layer_1" xmlns="http://www.w3.org/2000/svg" xmlns:xlink="http://www.w3.org/1999/xlink" x="0px" y="0px"
	 width="100px" height="100px" viewBox="0 0 100 100" style="enable-background:new 0 0 100 100;" xml:space="preserve">
<g>
	<path style="fill-rule:evenodd;clip-rule:evenodd;fill:#0D72B9;" d="M97.404,13.512v35.581c0,5.003-4.093,9.096-9.098,9.096
		c-5.004,0-9.097-4.093-9.097-9.096V31.705c0-5.003-4.092-9.096-9.097-9.096h-7.452c-5.003,0-9.096-4.092-9.096-9.096
		c0-5.002,4.093-9.096,9.096-9.096h25.646C93.311,4.417,97.404,8.511,97.404,13.512z"/>
	<path style="fill-rule:evenodd;clip-rule:evenodd;fill:#6C9C40;" d="M47.272,95.583h-35.58c-5.004,0-9.096-4.092-9.096-9.098
		c0-5.003,4.092-9.097,9.096-9.097h17.386c5.003,0,9.096-4.092,9.096-9.097v-7.45c0-5.004,4.094-9.097,9.098-9.097
		c5.003,0,9.096,4.093,9.096,9.097v25.644C56.368,91.491,52.275,95.583,47.272,95.583z"/>
	<path style="fill-rule:evenodd;clip-rule:evenodd;fill:#E82E2F;" d="M24.347,26.659h35.581c5.002,0,9.096,4.092,9.096,9.095
		c0,5.006-4.094,9.097-9.096,9.097H42.54c-5.004,0-9.094,4.094-9.094,9.098v7.453c0,5.002-4.096,9.096-9.098,9.096
		c-5.004,0-9.097-4.094-9.097-9.096V35.754C15.251,30.753,19.344,26.659,24.347,26.659z"/>
</g>
</svg>
