<?xml version="1.0" encoding="iso-8859-1"?>
<!-- Generator: Adobe Illustrator 16.0.0, SVG Export Plug-In . SVG Version: 6.00 Build 0)  -->
<!DOCTYPE svg PUBLIC "-//W3C//DTD SVG 1.1//EN" "http://www.w3.org/Graphics/SVG/1.1/DTD/svg11.dtd">
<svg version="1.1" id="Layer_1" xmlns="http://www.w3.org/2000/svg" xmlns:xlink="http://www.w3.org/1999/xlink" x="0px" y="0px"
	 width="50px" height="50px" viewBox="0 0 50 50" style="enable-background:new 0 0 50 50;" xml:space="preserve">
<g>
	<path style="fill:#22BFD5;" d="M25,47.85c-0.542,0-1.078-0.203-1.489-0.615L11.35,35.072c-7.526-7.528-7.526-19.776,0-27.306
		C14.972,4.148,19.822,2.151,25,2.151c5.179,0,10.028,1.998,13.65,5.615l0,0c7.525,7.53,7.525,19.778,0,27.306L26.489,47.234
		C26.078,47.646,25.539,47.85,25,47.85z M25,6.368c-4.055,0-7.842,1.557-10.669,4.383c-5.883,5.883-5.883,15.459,0,21.337L25,42.762
		l10.669-10.674c5.884-5.878,5.884-15.454,0-21.337C32.844,7.925,29.052,6.368,25,6.368z"/>
	<path style="fill:#22BFD5;" d="M25.038,29.631c-2.08,0-4.168-0.791-5.815-2.373c-1.564-1.568-2.412-3.611-2.412-5.789
		c0-2.174,0.848-4.221,2.385-5.758c1.606-1.602,3.712-2.393,5.917-2.453c2.164,0.022,4.191,0.9,5.71,2.476
		c1.526,1.53,2.366,3.569,2.366,5.736c0,2.178-0.848,4.221-2.385,5.758C29.202,28.824,27.126,29.627,25.038,29.631z M25.034,17.474
		c-1.055,0-2.069,0.43-2.856,1.221c-0.742,0.739-1.149,1.727-1.149,2.774c0,1.051,0.407,2.035,1.146,2.774
		c1.609,1.545,4.105,1.552,5.65,0c0.742-0.739,1.149-1.723,1.149-2.774c0-1.047-0.407-2.035-1.149-2.774
		c-0.008-0.007-0.019-0.019-0.03-0.03c-0.728-0.758-1.695-1.183-2.718-1.191C25.06,17.474,25.049,17.474,25.034,17.474z"/>
</g>
</svg>
