<?xml version="1.0" encoding="iso-8859-1"?>
<!-- Generator: Adobe Illustrator 16.0.0, SVG Export Plug-In . SVG Version: 6.00 Build 0)  -->
<!DOCTYPE svg PUBLIC "-//W3C//DTD SVG 1.1//EN" "http://www.w3.org/Graphics/SVG/1.1/DTD/svg11.dtd">
<svg version="1.1" id="Layer_1" xmlns="http://www.w3.org/2000/svg" xmlns:xlink="http://www.w3.org/1999/xlink" x="0px" y="0px"
	 width="300px" height="68.75px" viewBox="0 0 300 68.75" style="enable-background:new 0 0 300 68.75;" xml:space="preserve">
<g>
	<rect x="85.098" y="15.615" style="fill:#2E3191;" width="6.396" height="37.52"/>
	<path style="fill:#2E3191;" d="M99.727,52.398c-1.344-0.744-2.371-1.837-3.084-3.265c-0.711-1.427-1.074-3.146-1.074-5.164V24.773
		c0-2.011,0.363-3.73,1.074-5.161c0.713-1.424,1.741-2.514,3.084-3.261c1.34-0.748,2.96-1.124,4.851-1.124
		c1.893,0,3.516,0.376,4.866,1.124c1.35,0.748,2.377,1.84,3.082,3.28c0.708,1.427,1.059,3.153,1.059,5.167v3.023h-6.477v-3.023
		c0-0.63-0.093-1.182-0.286-1.647c-0.187-0.466-0.478-0.823-0.859-1.074c-0.388-0.248-0.854-0.375-1.384-0.375
		c-0.516,0-0.962,0.124-1.34,0.366c-0.382,0.239-0.667,0.59-0.866,1.055c-0.195,0.466-0.295,1.018-0.295,1.651V43.97
		c0,0.642,0.1,1.186,0.295,1.641c0.199,0.457,0.484,0.804,0.866,1.049c0.378,0.236,0.825,0.357,1.34,0.357
		c0.549,0,1.018-0.121,1.393-0.357c0.376-0.246,0.664-0.593,0.851-1.049c0.192-0.456,0.286-1.011,0.286-1.663v-3.016h6.477v3.016
		c0,2.014-0.351,3.74-1.059,5.176c-0.704,1.434-1.731,2.53-3.082,3.274c-1.35,0.748-2.973,1.123-4.866,1.123
		C102.687,53.521,101.067,53.146,99.727,52.398"/>
	<path style="fill:#2E3191;" d="M120.475,52.424c-1.412-0.73-2.492-1.788-3.24-3.175c-0.751-1.384-1.123-3.047-1.123-4.993v-2.014
		l6.371-0.05v2.014c0,0.943,0.27,1.688,0.801,2.231c0.534,0.543,1.275,0.813,2.219,0.813c0.931,0,1.645-0.267,2.154-0.801
		s0.767-1.263,0.767-2.194v-3.274c0-0.689-0.195-1.288-0.58-1.794c-0.388-0.506-0.888-0.947-1.499-1.316
		c-0.611-0.37-1.443-0.816-2.489-1.331c-0.071-0.035-0.136-0.065-0.195-0.103c-0.062-0.034-0.127-0.068-0.192-0.106l-0.335-0.152
		c-1.394-0.705-2.579-1.44-3.563-2.207c-0.98-0.763-1.796-1.775-2.448-3.032c-0.658-1.257-0.984-2.802-0.984-4.646V24.36
		c0-1.905,0.366-3.544,1.099-4.916c0.729-1.365,1.791-2.411,3.184-3.134c1.396-0.717,3.072-1.083,5.03-1.083
		c1.915,0,3.557,0.366,4.931,1.083c1.378,0.723,2.424,1.778,3.15,3.159c0.72,1.387,1.086,3.05,1.086,4.996v2.113l-6.38,0.078v-2.141
		c0-0.962-0.239-1.716-0.732-2.256c-0.49-0.542-1.173-0.813-2.055-0.813c-0.925,0-1.645,0.242-2.15,0.736
		c-0.509,0.49-0.764,1.164-0.764,2.026v2.501c0,0.708,0.189,1.316,0.559,1.834c0.369,0.515,0.835,0.946,1.394,1.3
		c0.555,0.354,1.334,0.779,2.334,1.279c0.189,0.086,0.384,0.183,0.58,0.286c0.196,0.102,0.404,0.205,0.605,0.304
		c0.034,0.019,0.065,0.038,0.09,0.053c0.028,0.019,0.056,0.038,0.093,0.053c1.428,0.764,2.582,1.458,3.454,2.104
		c0.878,0.646,1.629,1.555,2.247,2.722c0.617,1.17,0.931,2.669,0.931,4.491v3.122c0,1.946-0.366,3.609-1.099,4.993
		c-0.729,1.387-1.791,2.445-3.19,3.175c-1.39,0.732-3.056,1.098-4.999,1.098C123.569,53.521,121.884,53.156,120.475,52.424"/>
	<path style="fill:#2E3191;" d="M136.833,15.615h18.784v6.141h-18.784V15.615z M143.024,18.762h6.402v34.373h-6.402V18.762z"/>
	<path style="fill:#2E3191;" d="M161.787,52.398c-1.342-0.744-2.368-1.837-3.089-3.265c-0.711-1.427-1.067-3.146-1.067-5.164V24.773
		c0-2.011,0.356-3.73,1.067-5.161c0.721-1.424,1.747-2.514,3.089-3.261c1.34-0.748,2.957-1.124,4.854-1.124
		c1.893,0,3.509,0.376,4.862,1.124c1.35,0.748,2.377,1.84,3.081,3.28c0.705,1.427,1.062,3.153,1.062,5.167v3.023h-6.479v-3.023
		c0-0.63-0.093-1.182-0.282-1.647c-0.192-0.466-0.479-0.823-0.866-1.074c-0.388-0.248-0.851-0.375-1.377-0.375
		c-0.519,0-0.969,0.124-1.345,0.366c-0.382,0.239-0.667,0.59-0.862,1.055c-0.202,0.466-0.301,1.018-0.301,1.651V43.97
		c0,0.642,0.099,1.186,0.301,1.641c0.195,0.457,0.48,0.804,0.862,1.049c0.376,0.236,0.826,0.357,1.345,0.357
		c0.549,0,1.011-0.121,1.39-0.357c0.379-0.246,0.661-0.593,0.854-1.049c0.189-0.456,0.282-1.011,0.282-1.663v-3.016h6.479v3.016
		c0,2.014-0.356,3.74-1.062,5.176c-0.704,1.434-1.731,2.53-3.081,3.274c-1.354,0.748-2.97,1.123-4.862,1.123
		C164.744,53.521,163.127,53.146,161.787,52.398"/>
	<path style="fill:#2E3191;" d="M182.842,52.398c-1.34-0.744-2.371-1.837-3.081-3.265c-0.717-1.427-1.073-3.146-1.073-5.164V24.773
		c0-2.011,0.356-3.73,1.073-5.161c0.71-1.424,1.741-2.514,3.081-3.261c1.345-0.748,2.958-1.124,4.854-1.124
		c1.891,0,3.513,0.376,4.863,1.124c1.35,0.748,2.377,1.84,3.082,3.28c0.704,1.427,1.058,3.153,1.058,5.167v3.023h-6.477v-3.023
		c0-0.63-0.093-1.182-0.282-1.647c-0.189-0.466-0.479-0.823-0.866-1.074c-0.385-0.248-0.847-0.375-1.378-0.375
		c-0.521,0-0.968,0.124-1.341,0.366c-0.381,0.239-0.669,0.59-0.865,1.055c-0.202,0.466-0.297,1.018-0.297,1.651V43.97
		c0,0.642,0.095,1.186,0.297,1.641c0.196,0.457,0.484,0.804,0.865,1.049c0.373,0.236,0.819,0.357,1.341,0.357
		c0.55,0,1.013-0.121,1.391-0.357c0.378-0.246,0.664-0.593,0.854-1.049c0.189-0.456,0.282-1.011,0.282-1.663v-3.016h6.477v3.016
		c0,2.014-0.354,3.74-1.058,5.176c-0.705,1.434-1.732,2.53-3.082,3.274c-1.351,0.748-2.973,1.123-4.863,1.123
		C185.8,53.521,184.187,53.146,182.842,52.398"/>
	<path style="fill:#0872B9;" d="M211.098,47.471l7.56-13.158c1.136-1.967,1.974-3.73,2.517-5.294
		c0.54-1.563,0.816-2.941,0.816-4.127v-0.49c0-0.913-0.177-1.589-0.53-2.023c-0.354-0.44-0.899-0.661-1.64-0.661
		c-0.844,0-1.461,0.279-1.846,0.825c-0.389,0.553-0.581,1.41-0.581,2.583v1.34h-6.5v-1.34c0-2.185,0.322-3.995,0.964-5.418
		c0.646-1.431,1.617-2.501,2.918-3.215c1.3-0.713,2.936-1.071,4.919-1.071c1.977,0,3.614,0.335,4.912,0.993
		c1.301,0.664,2.271,1.66,2.914,2.995c0.648,1.332,0.968,3.007,0.968,5.021v0.487c0,1.378-0.301,2.958-0.9,4.749
		c-0.602,1.79-1.517,3.835-2.736,6.142L218.89,47.03h9.547v6.3h-17.339V47.471z"/>
	<path style="fill:#0872B9;" d="M234.839,51.16c-1.516-1.573-2.27-3.795-2.27-6.669V24.258c0-2.871,0.754-5.096,2.27-6.668
		c1.511-1.577,3.646-2.362,6.397-2.362c2.753,0,4.889,0.786,6.399,2.362c1.512,1.573,2.272,3.798,2.272,6.668v20.233
		c0,2.874-0.761,5.096-2.272,6.669c-1.511,1.574-3.646,2.361-6.399,2.361C238.484,53.521,236.35,52.734,234.839,51.16 M242.9,46.505
		c0.406-0.487,0.608-1.157,0.608-2.014V24.258c0-0.859-0.202-1.533-0.608-2.014c-0.403-0.478-0.959-0.72-1.664-0.72
		c-0.704,0-1.257,0.242-1.663,0.72c-0.403,0.481-0.607,1.155-0.607,2.014v20.233c0,0.857,0.204,1.527,0.607,2.014
		c0.406,0.478,0.959,0.72,1.663,0.72C241.941,47.226,242.497,46.983,242.9,46.505"/>
	<path style="fill:#0872B9;" d="M254.19,47.471l7.56-13.158c1.139-1.967,1.977-3.73,2.521-5.294
		c0.539-1.563,0.809-2.941,0.809-4.127v-0.49c0-0.913-0.173-1.589-0.527-2.023c-0.351-0.44-0.896-0.661-1.635-0.661
		c-0.848,0-1.462,0.279-1.85,0.825c-0.385,0.553-0.58,1.41-0.58,2.583v1.34h-6.499v-1.34c0-2.185,0.319-3.995,0.963-5.418
		c0.647-1.431,1.616-2.501,2.92-3.215c1.296-0.713,2.936-1.071,4.912-1.071c1.978,0,3.618,0.335,4.915,0.993
		c1.301,0.664,2.272,1.66,2.914,2.995c0.648,1.332,0.972,3.007,0.972,5.021v0.487c0,1.378-0.304,2.958-0.906,4.749
		c-0.599,1.79-1.512,3.835-2.734,6.142l-5.958,11.224h9.546v6.3H254.19V47.471z"/>
	<path style="fill:#0872B9;" d="M277.931,51.16c-1.511-1.573-2.271-3.795-2.271-6.669V24.258c0-2.871,0.761-5.096,2.271-6.668
		c1.515-1.577,3.649-2.362,6.402-2.362c2.752,0,4.884,0.786,6.398,2.362c1.511,1.573,2.269,3.798,2.269,6.668v20.233
		c0,2.874-0.758,5.096-2.269,6.669c-1.515,1.574-3.646,2.361-6.398,2.361C281.58,53.521,279.445,52.734,277.931,51.16
		 M285.996,46.505c0.403-0.487,0.607-1.157,0.607-2.014V24.258c0-0.859-0.204-1.533-0.607-2.014c-0.407-0.478-0.959-0.72-1.663-0.72
		c-0.708,0-1.263,0.242-1.664,0.72c-0.406,0.481-0.607,1.155-0.607,2.014v20.233c0,0.857,0.201,1.527,0.607,2.014
		c0.401,0.478,0.956,0.72,1.664,0.72C285.037,47.226,285.589,46.983,285.996,46.505"/>
	<g>
		<path style="fill-rule:evenodd;clip-rule:evenodd;fill:#0D72B9;" d="M69.922,10.16v23.613c0,3.321-2.718,6.036-6.039,6.036
			c-3.324,0-6.039-2.715-6.039-6.036V22.231c0-3.32-2.719-6.036-6.033-6.036h-4.95c-3.32,0-6.036-2.712-6.036-6.036
			c0-3.32,2.715-6.039,6.036-6.039h17.021C67.204,4.121,69.922,6.839,69.922,10.16z"/>
		<path style="fill-rule:evenodd;clip-rule:evenodd;fill:#6C9C40;" d="M36.652,64.629H13.036C9.715,64.629,7,61.91,7,58.592
			c0-3.322,2.715-6.037,6.036-6.037h11.538c3.32,0,6.036-2.72,6.036-6.037v-4.95c0-3.318,2.718-6.036,6.042-6.036
			c3.321,0,6.03,2.718,6.03,6.036v17.023C42.682,61.91,39.973,64.629,36.652,64.629z"/>
		<path style="fill-rule:evenodd;clip-rule:evenodd;fill:#E82E2F;" d="M21.433,18.88H45.05c3.317,0,6.036,2.719,6.036,6.039
			c0,3.324-2.719,6.039-6.036,6.039H33.505c-3.317,0-6.032,2.718-6.032,6.036v4.946c0,3.321-2.716,6.039-6.036,6.039
			c-3.323,0-6.036-2.718-6.036-6.039V24.919C15.401,21.599,18.113,18.88,21.433,18.88z"/>
	</g>
</g>
</svg>
