<?xml version="1.0" encoding="utf-8"?>
<!-- Generator: Adobe Illustrator 16.0.0, SVG Export Plug-In . SVG Version: 6.00 Build 0)  -->
<!DOCTYPE svg PUBLIC "-//W3C//DTD SVG 1.1//EN" "http://www.w3.org/Graphics/SVG/1.1/DTD/svg11.dtd">
<svg version="1.1" id="Layer_1" xmlns="http://www.w3.org/2000/svg" xmlns:xlink="http://www.w3.org/1999/xlink" x="0px" y="0px"
	 width="50px" height="50px" viewBox="0 0 50 50" enable-background="new 0 0 50 50" xml:space="preserve">
<g>
	<path fill="#22BFD5" d="M35.996,37.002H14.004c-1.692,0-3.068-1.377-3.068-3.067v-2.929c0-1.376,0.927-2.569,2.307-2.966
		c2.249-0.645,2.775-7.004,3.197-12.114C16.87,10.729,20.15,7.5,25,7.5c4.851,0,8.13,3.229,8.561,8.426
		c0.422,5.11,0.948,11.469,3.194,12.113c1.382,0.397,2.31,1.591,2.31,2.967v2.929C39.064,35.625,37.688,37.002,35.996,37.002z
		 M14.323,33.614h21.355v-2.362c-4.363-1.38-4.887-7.719-5.493-15.046c-0.165-1.986-1.057-5.318-5.185-5.318
		s-5.02,3.332-5.184,5.318c-0.606,7.326-1.13,13.664-5.493,15.046V33.614z"/>
	<path fill="#22BFD5" d="M25,42.5c-2.45,0-4.442-1.992-4.442-4.442c0-0.935,0.759-1.693,1.694-1.693
		c0.935,0,1.693,0.759,1.693,1.693c0,0.582,0.473,1.056,1.055,1.056s1.055-0.474,1.055-1.056c0-0.935,0.759-1.693,1.694-1.693
		c0.935,0,1.693,0.759,1.693,1.693C29.442,40.508,27.45,42.5,25,42.5z"/>
</g>
</svg>
