<?xml version="1.0" encoding="iso-8859-1"?>
<!-- Generator: Adobe Illustrator 16.0.0, SVG Export Plug-In . SVG Version: 6.00 Build 0)  -->
<!DOCTYPE svg PUBLIC "-//W3C//DTD SVG 1.1//EN" "http://www.w3.org/Graphics/SVG/1.1/DTD/svg11.dtd">
<svg version="1.1" id="Layer_1" xmlns="http://www.w3.org/2000/svg" xmlns:xlink="http://www.w3.org/1999/xlink" x="0px" y="0px"
	 width="50px" height="50px" viewBox="0 0 50 50" style="enable-background:new 0 0 50 50;" xml:space="preserve">
<g>
	<path style="fill:#C6C6C6;" d="M39.107,47.979h-28.21c-2.528,0-4.587-2.015-4.587-4.489V22.087c0-2.567,2.015-4.584,4.587-4.584
		h28.21c2.567,0,4.582,2.017,4.582,4.584V43.49C43.689,45.965,41.633,47.979,39.107,47.979z M10.897,21.744
		c-0.214,0-0.346,0.134-0.346,0.343V43.49c0,0.093,0.112,0.246,0.346,0.246h28.21c0.211,0,0.34-0.144,0.34-0.246V22.087
		c0-0.209-0.134-0.343-0.34-0.343H10.897z"/>
	<path style="fill:#C6C6C6;" d="M35.359,21.744c-1.173,0-2.122-0.949-2.122-2.122V8.481c0-1.205-1.018-2.222-2.22-2.222H18.984
		c-1.205,0-2.22,1.017-2.22,2.222v2.368c0,1.168-0.946,2.119-2.119,2.119s-2.122-0.951-2.122-2.119V8.481
		c0-3.563,2.9-6.461,6.461-6.461h12.033c3.563,0,6.459,2.898,6.459,6.461v11.141C37.477,20.795,36.527,21.744,35.359,21.744z"/>
	<path style="fill:#C6C6C6;" d="M25.002,37.031c-1.173,0-2.122-0.951-2.122-2.117V30.57c0-1.173,0.949-2.122,2.122-2.122
		c1.174,0,2.12,0.949,2.12,2.122v4.344C27.122,36.08,26.176,37.031,25.002,37.031z"/>
</g>
</svg>
