<?xml version="1.0" encoding="utf-8"?>
<!-- Generator: Adobe Illustrator 16.0.0, SVG Export Plug-In . SVG Version: 6.00 Build 0)  -->
<!DOCTYPE svg PUBLIC "-//W3C//DTD SVG 1.1//EN" "http://www.w3.org/Graphics/SVG/1.1/DTD/svg11.dtd">
<svg version="1.1" id="Layer_1" xmlns="http://www.w3.org/2000/svg" xmlns:xlink="http://www.w3.org/1999/xlink" x="0px" y="0px"
	 width="50px" height="50px" viewBox="0 0 50 50" enable-background="new 0 0 50 50" xml:space="preserve">
<g>
	<g>
		<path fill="#22BFD5" d="M24.592,29.281c-0.22,0-0.439-0.084-0.607-0.253c-0.331-0.335-0.328-0.874,0.006-1.206l6.864-6.782
			c0.337-0.331,0.877-0.328,1.205,0.006c0.333,0.335,0.328,0.875-0.006,1.208l-6.864,6.781
			C25.025,29.199,24.808,29.281,24.592,29.281z"/>
		<path fill="#22BFD5" d="M24.592,29.281c-0.22,0-0.439-0.084-0.607-0.253l-6.782-6.864c-0.333-0.335-0.328-0.875,0.006-1.208
			c0.337-0.333,0.877-0.327,1.206,0.008l6.784,6.864c0.331,0.335,0.327,0.875-0.008,1.206
			C25.025,29.199,24.808,29.281,24.592,29.281z"/>
	</g>
	<path fill="#22BFD5" d="M25,40c-8.27,0-15-6.73-15-15c0-8.27,6.73-15,15-15c8.271,0,15,6.73,15,15C40,33.27,33.271,40,25,40z
		 M25,11.875c-7.236,0-13.125,5.889-13.125,13.125S17.764,38.125,25,38.125S38.125,32.236,38.125,25S32.236,11.875,25,11.875z"/>
</g>
</svg>
