<?xml version="1.0" encoding="utf-8"?>
<!-- Generator: Adobe Illustrator 16.0.0, SVG Export Plug-In . SVG Version: 6.00 Build 0)  -->
<!DOCTYPE svg PUBLIC "-//W3C//DTD SVG 1.1//EN" "http://www.w3.org/Graphics/SVG/1.1/DTD/svg11.dtd">
<svg version="1.1" id="Layer_1" xmlns="http://www.w3.org/2000/svg" xmlns:xlink="http://www.w3.org/1999/xlink" x="0px" y="0px"
	 width="50px" height="50px" viewBox="0 0 50 50" enable-background="new 0 0 50 50" xml:space="preserve">
<g>
	<path fill="#22BFD5" d="M13.26,41c-0.139,0-0.278-0.028-0.41-0.088c-0.359-0.161-0.59-0.519-0.59-0.912V11.305
		C12.26,10.034,13.294,9,14.564,9h20.871c1.271,0,2.305,1.034,2.305,2.305V40c0,0.394-0.231,0.751-0.591,0.912
		c-0.357,0.163-0.779,0.097-1.073-0.165l-10.873-9.665c-0.141-0.123-0.262-0.126-0.408,0.003l-10.871,9.662
		C13.737,40.913,13.5,41,13.26,41z M14.564,11c-0.171,0-0.305,0.134-0.305,0.305v26.469l9.209-8.186
		c0.852-0.752,2.215-0.749,3.06-0.003l9.212,8.188V11.305c0-0.171-0.134-0.305-0.305-0.305H14.564z"/>
	<path fill="#22BFD5" d="M25,26.651c-0.552,0-1-0.447-1-1V15.216c0-0.552,0.448-1,1-1c0.553,0,1,0.448,1,1v10.436
		C26,26.204,25.553,26.651,25,26.651z"/>
	<path fill="#22BFD5" d="M30.218,21.435H19.782c-0.552,0-1-0.448-1-1s0.448-1,1-1h10.436c0.553,0,1,0.448,1,1
		S30.771,21.435,30.218,21.435z"/>
</g>
</svg>
