<?xml version="1.0" encoding="utf-8"?>
<!-- Generator: Adobe Illustrator 16.0.0, SVG Export Plug-In . SVG Version: 6.00 Build 0)  -->
<!DOCTYPE svg PUBLIC "-//W3C//DTD SVG 1.1//EN" "http://www.w3.org/Graphics/SVG/1.1/DTD/svg11.dtd">
<svg version="1.1" id="Layer_1" xmlns="http://www.w3.org/2000/svg" xmlns:xlink="http://www.w3.org/1999/xlink" x="0px" y="0px"
	 width="50px" height="50px" viewBox="0 0 50 50" enable-background="new 0 0 50 50" xml:space="preserve">
<g>
	<path fill="#22BFD5" d="M35.887,38.911l-10.084-8.963c-0.458-0.406-1.147-0.406-1.606,0l-10.083,8.963V12.298
		c0-0.669,0.541-1.209,1.209-1.209h19.355c0.668,0,1.209,0.541,1.209,1.209V38.911z"/>
	<path fill="#22BFD5" d="M35.887,40c-0.261,0-0.52-0.093-0.722-0.274l-10.084-8.963l-10.246,8.963
		c-0.317,0.285-0.773,0.354-1.168,0.178c-0.391-0.176-0.643-0.563-0.643-0.992V12.298c0-1.266,1.03-2.298,2.298-2.298h19.355
		c1.268,0,2.298,1.032,2.298,2.298v26.613c0,0.429-0.251,0.816-0.643,0.992C36.189,39.968,36.038,40,35.887,40z M25,28.555
		c0.562,0,1.104,0.205,1.525,0.577l8.273,7.354V12.298l-19.476-0.121l-0.111,24.299l8.261-7.343
		C23.896,28.76,24.438,28.555,25,28.555z"/>
</g>
</svg>
