<?xml version="1.0" encoding="iso-8859-1"?>
<!-- Generator: Adobe Illustrator 16.0.0, SVG Export Plug-In . SVG Version: 6.00 Build 0)  -->
<!DOCTYPE svg PUBLIC "-//W3C//DTD SVG 1.1//EN" "http://www.w3.org/Graphics/SVG/1.1/DTD/svg11.dtd">
<svg version="1.1" id="Layer_1" xmlns="http://www.w3.org/2000/svg" xmlns:xlink="http://www.w3.org/1999/xlink" x="0px" y="0px"
	 width="50px" height="50px" viewBox="0 0 50 50" style="enable-background:new 0 0 50 50;" xml:space="preserve">
<g>
	<path style="fill:#C6C6C6;" d="M25.001,28.368c-7.297,0-13.234-5.938-13.234-13.231c0-7.298,5.937-13.234,13.234-13.234
		c7.296,0,13.231,5.936,13.231,13.234C38.232,22.43,32.298,28.368,25.001,28.368z M25.001,6.165c-4.945,0-8.972,4.026-8.972,8.972
		s4.026,8.969,8.972,8.969c4.946,0,8.972-4.023,8.972-8.969S29.947,6.165,25.001,6.165z"/>
	<path style="fill:#C6C6C6;" d="M6.463,48.091c-0.28,0-0.568-0.055-0.842-0.173c-1.082-0.465-1.58-1.717-1.114-2.801
		c3.525-8.187,11.568-13.48,20.494-13.48c8.923,0,16.964,5.294,20.492,13.48c0.466,1.081-0.035,2.336-1.113,2.801
		c-1.084,0.477-2.336-0.035-2.802-1.114c-2.853-6.622-9.359-10.904-16.577-10.904c-7.22,0-13.729,4.282-16.579,10.904
		C8.075,47.612,7.29,48.091,6.463,48.091z"/>
</g>
</svg>
